<svg xmlns="http://www.w3.org/2000/svg" xmlns:xlink="http://www.w3.org/1999/xlink" contentStyleType="text/css" data-diagram-type="MINDMAP" height="303px" preserveAspectRatio="none" style="width:1061px;height:303px;background:#FFFFFF;" version="1.1" viewBox="0 0 1061 303" width="1061px" zoomAndPan="magnify"><defs/><g><rect fill="#F1F1F1" height="36.2969" rx="12.5" ry="12.5" style="stroke:#181818;stroke-width:1.5;" width="57.7207" x="500.725" y="10"/><text fill="#000000" font-family="sans-serif" font-size="14" lengthAdjust="spacing" textLength="37.7207" x="510.725" y="32.9951">Linux</text><rect fill="#F1F1F1" height="36.2969" rx="12.5" ry="12.5" style="stroke:#181818;stroke-width:1.5;" width="51.9033" x="210.2769" y="71.2969"/><text fill="#000000" font-family="sans-serif" font-size="14" lengthAdjust="spacing" textLength="31.9033" x="220.2769" y="94.292">Arch</text><rect fill="#F1F1F1" height="36.2969" rx="12.5" ry="12.5" style="stroke:#181818;stroke-width:1.5;" width="115.1836" x="20" y="132.5938"/><text fill="#000000" font-family="sans-serif" font-size="14" lengthAdjust="spacing" textLength="95.1836" x="30" y="155.5889">EndeavourOS</text><path d="M236.2285,107.5938 L236.2285,110.5938 C236.2285,117.5938 77.5918,122.5938 77.5918,129.5938 L77.5918,132.5938" fill="none" style="stroke:#181818;stroke-width:1;"/><rect fill="#F1F1F1" height="36.2969" rx="12.5" ry="12.5" style="stroke:#181818;stroke-width:1.5;" width="113.6934" x="155.1836" y="132.5938"/><text fill="#000000" font-family="sans-serif" font-size="14" lengthAdjust="spacing" textLength="93.6934" x="165.1836" y="155.5889">Garuda Linux</text><path d="M236.2285,107.5938 L236.2285,110.5938 C236.2285,117.5938 212.0303,122.5938 212.0303,129.5938 L212.0303,132.5938" fill="none" style="stroke:#181818;stroke-width:1;"/><rect fill="#F1F1F1" height="36.2969" rx="12.5" ry="12.5" style="stroke:#181818;stroke-width:1.5;" width="118.4922" x="288.877" y="132.5938"/><text fill="#000000" font-family="sans-serif" font-size="14" lengthAdjust="spacing" textLength="98.4922" x="298.877" y="155.5889">Manjaro Linux</text><rect fill="#F1F1F1" height="36.2969" rx="12.5" ry="12.5" style="stroke:#181818;stroke-width:1.5;" width="80.1016" x="243.7891" y="193.8906"/><text fill="#000000" font-family="sans-serif" font-size="14" lengthAdjust="spacing" textLength="60.1016" x="253.7891" y="216.8857">BigLinux</text><path d="M348.123,168.8906 L348.123,171.8906 C348.123,178.8906 283.8398,183.8906 283.8398,190.8906 L283.8398,193.8906" fill="none" style="stroke:#181818;stroke-width:1;"/><rect fill="#F1F1F1" height="36.2969" rx="12.5" ry="12.5" style="stroke:#181818;stroke-width:1.5;" width="108.5664" x="343.8906" y="193.8906"/><text fill="#000000" font-family="sans-serif" font-size="14" lengthAdjust="spacing" textLength="88.5664" x="353.8906" y="216.8857">Mabox Linux</text><path d="M348.123,168.8906 L348.123,171.8906 C348.123,178.8906 398.1738,183.8906 398.1738,190.8906 L398.1738,193.8906" fill="none" style="stroke:#181818;stroke-width:1;"/><path d="M236.2285,107.5938 L236.2285,110.5938 C236.2285,117.5938 348.123,122.5938 348.123,129.5938 L348.123,132.5938" fill="none" style="stroke:#181818;stroke-width:1;"/><path d="M529.5853,46.2969 L529.5853,49.2969 C529.5853,56.2969 236.2285,61.2969 236.2285,68.2969 L236.2285,71.2969" fill="none" style="stroke:#181818;stroke-width:1;"/><rect fill="#F1F1F1" height="36.2969" rx="12.5" ry="12.5" style="stroke:#181818;stroke-width:1.5;" width="69.6221" x="721.0028" y="71.2969"/><text fill="#000000" font-family="sans-serif" font-size="14" lengthAdjust="spacing" textLength="49.6221" x="731.0028" y="94.292">Debian</text><rect fill="#F1F1F1" height="36.2969" rx="12.5" ry="12.5" style="stroke:#181818;stroke-width:1.5;" width="74.0039" x="472.457" y="132.5938"/><text fill="#000000" font-family="sans-serif" font-size="14" lengthAdjust="spacing" textLength="54.0039" x="482.457" y="155.5889">Devuan</text><path d="M755.8138,107.5938 L755.8138,110.5938 C755.8138,117.5938 509.459,122.5938 509.459,129.5938 L509.459,132.5938" fill="none" style="stroke:#181818;stroke-width:1;"/><rect fill="#F1F1F1" height="36.2969" rx="12.5" ry="12.5" style="stroke:#181818;stroke-width:1.5;" width="59.5049" x="566.4609" y="132.5938"/><text fill="#000000" font-family="sans-serif" font-size="14" lengthAdjust="spacing" textLength="39.5049" x="576.4609" y="155.5889">LMDE</text><path d="M755.8138,107.5938 L755.8138,110.5938 C755.8138,117.5938 596.2134,122.5938 596.2134,129.5938 L596.2134,132.5938" fill="none" style="stroke:#181818;stroke-width:1;"/><rect fill="#F1F1F1" height="36.2969" rx="12.5" ry="12.5" style="stroke:#181818;stroke-width:1.5;" width="83.8408" x="645.9658" y="132.5938"/><text fill="#000000" font-family="sans-serif" font-size="14" lengthAdjust="spacing" textLength="63.8408" x="655.9658" y="155.5889">MX Linux</text><path d="M755.8138,107.5938 L755.8138,110.5938 C755.8138,117.5938 687.8862,122.5938 687.8862,129.5938 L687.8862,132.5938" fill="none" style="stroke:#181818;stroke-width:1;"/><rect fill="#F1F1F1" height="36.2969" rx="12.5" ry="12.5" style="stroke:#181818;stroke-width:1.5;" width="71.2422" x="749.8066" y="132.5938"/><text fill="#000000" font-family="sans-serif" font-size="14" lengthAdjust="spacing" textLength="51.2422" x="759.8066" y="155.5889">Ubuntu</text><rect fill="#F1F1F1" height="36.2969" rx="12.5" ry="12.5" style="stroke:#181818;stroke-width:1.5;" width="89.7813" x="531.6848" y="193.8906"/><text fill="#000000" font-family="sans-serif" font-size="14" lengthAdjust="spacing" textLength="69.7813" x="541.6848" y="216.8857">KDE Neon</text><path d="M785.4277,168.8906 L785.4277,171.8906 C785.4277,178.8906 576.5754,183.8906 576.5754,190.8906 L576.5754,193.8906" fill="none" style="stroke:#181818;stroke-width:1;"/><rect fill="#F1F1F1" height="36.2969" rx="12.5" ry="12.5" style="stroke:#181818;stroke-width:1.5;" width="79.0488" x="641.4661" y="193.8906"/><text fill="#000000" font-family="sans-serif" font-size="14" lengthAdjust="spacing" textLength="59.0488" x="651.4661" y="216.8857">Kubuntu</text><path d="M785.4277,168.8906 L785.4277,171.8906 C785.4277,178.8906 680.9905,183.8906 680.9905,190.8906 L680.9905,193.8906" fill="none" style="stroke:#181818;stroke-width:1;"/><rect fill="#F1F1F1" height="36.2969" rx="12.5" ry="12.5" style="stroke:#181818;stroke-width:1.5;" width="92.502" x="740.5149" y="193.8906"/><text fill="#000000" font-family="sans-serif" font-size="14" lengthAdjust="spacing" textLength="72.502" x="750.5149" y="216.8857">Linux Mint</text><rect fill="#F1F1F1" height="36.2969" rx="12.5" ry="12.5" style="stroke:#181818;stroke-width:1.5;" width="92.9805" x="740.2756" y="255.1875"/><text fill="#000000" font-family="sans-serif" font-size="14" lengthAdjust="spacing" textLength="72.9805" x="750.2756" y="278.1826">HamoniKR</text><path d="M786.7659,230.1875 L786.7659,233.1875 C786.7659,240.1875 786.7659,245.1875 786.7659,252.1875 L786.7659,255.1875" fill="none" style="stroke:#181818;stroke-width:1;"/><path d="M785.4277,168.8906 L785.4277,171.8906 C785.4277,178.8906 786.7659,183.8906 786.7659,190.8906 L786.7659,193.8906" fill="none" style="stroke:#181818;stroke-width:1;"/><rect fill="#F1F1F1" height="36.2969" rx="12.5" ry="12.5" style="stroke:#181818;stroke-width:1.5;" width="75.8633" x="853.0168" y="193.8906"/><text fill="#000000" font-family="sans-serif" font-size="14" lengthAdjust="spacing" textLength="55.8633" x="863.0168" y="216.8857">Pop! OS</text><path d="M785.4277,168.8906 L785.4277,171.8906 C785.4277,178.8906 890.9485,183.8906 890.9485,190.8906 L890.9485,193.8906" fill="none" style="stroke:#181818;stroke-width:1;"/><rect fill="#F1F1F1" height="36.2969" rx="12.5" ry="12.5" style="stroke:#181818;stroke-width:1.5;" width="79.459" x="948.8801" y="193.8906"/><text fill="#000000" font-family="sans-serif" font-size="14" lengthAdjust="spacing" textLength="59.459" x="958.8801" y="216.8857">Xubuntu</text><rect fill="#F1F1F1" height="36.2969" rx="12.5" ry="12.5" style="stroke:#181818;stroke-width:1.5;" width="101.1221" x="938.0486" y="255.1875"/><text fill="#000000" font-family="sans-serif" font-size="14" lengthAdjust="spacing" textLength="81.1221" x="948.0486" y="278.1826">Ufficio Zero</text><path d="M988.6096,230.1875 L988.6096,233.1875 C988.6096,240.1875 988.6096,245.1875 988.6096,252.1875 L988.6096,255.1875" fill="none" style="stroke:#181818;stroke-width:1;"/><path d="M785.4277,168.8906 L785.4277,171.8906 C785.4277,178.8906 988.6096,183.8906 988.6096,190.8906 L988.6096,193.8906" fill="none" style="stroke:#181818;stroke-width:1;"/><path d="M755.8138,107.5938 L755.8138,110.5938 C755.8138,117.5938 785.4277,122.5938 785.4277,129.5938 L785.4277,132.5938" fill="none" style="stroke:#181818;stroke-width:1;"/><path d="M529.5853,46.2969 L529.5853,49.2969 C529.5853,56.2969 755.8138,61.2969 755.8138,68.2969 L755.8138,71.2969" fill="none" style="stroke:#181818;stroke-width:1;"/><!--SRC=[xP3FSjD03CRl-nJYHEkPTg0KXkaf5ATb4fk61dSwt6HR2G9RygorflJfsTg1X1iFm6dtqvzFqc_M6tfhMUeMEsXOmeCpxS0KIZNJ5chsL1chk0IoCPyayCvNN-ERm5ngma63lrcF-XfzgF5FOG8voZVqkeyaSCdR0vLZgGzxvvHAHXbRKnh2xflbwNookp_mBieW5YQRPJg7ZwIoK-4WDJP0pcAZJk03jYgyl9tIA-sUmRH-0lS7ZN70PiCLAtmXh-uvnCWLrUfn_CT3yF6HZNRgKoYfVpAQPD6OnnOz2-rMdb6aF95sRlOV_B-2_ulRga6n8izW8Dz7EF3ozEp5sUlJLoKPdXyLybtqXq2bRSSDWN5Bn-xeUfL17s5L5B7svhaCJsIFtG87XDiuETPTm4r7iaYNlmCHyi1UfQLumU8ktnUyEJ-vP8Cr-RW6tEKkfGs6nc97fJNBzWAAprSdRrs6iWsuZTuaxhr6N_ypvjQ_0000]--></g></svg>